<?xml version="1.0" encoding="UTF-8"?>
<svg width="700pt" height="700pt" version="1.1" viewBox="0 0 700 700" xmlns="http://www.w3.org/2000/svg" xmlns:xlink="http://www.w3.org/1999/xlink">
 <defs>
  <symbol id="v" overflow="visible">
   <path d="m14.656-0.875c-0.76172 0.39844-1.5547 0.69531-2.375 0.89062-0.8125 0.19531-1.6641 0.29688-2.5469 0.29688-2.6562 0-4.7617-0.73828-6.3125-2.2188-1.5547-1.4883-2.3281-3.5039-2.3281-6.0469 0-2.5508 0.77344-4.5664 2.3281-6.0469 1.5508-1.4883 3.6562-2.2344 6.3125-2.2344 0.88281 0 1.7344 0.10156 2.5469 0.29688 0.82031 0.19922 1.6133 0.49609 2.375 0.89062v3.2969c-0.76172-0.51953-1.5117-0.89844-2.25-1.1406-0.74219-0.23828-1.5234-0.35938-2.3438-0.35938-1.4688 0-2.625 0.46875-3.4688 1.4062-0.83594 0.9375-1.25 2.2344-1.25 3.8906 0 1.6484 0.41406 2.9375 1.25 3.875 0.84375 0.9375 2 1.4062 3.4688 1.4062 0.82031 0 1.6016-0.11719 2.3438-0.35938 0.73828-0.23828 1.4883-0.61719 2.25-1.1406z"/>
  </symbol>
  <symbol id="d" overflow="visible">
   <path d="m10.719-8.7031c-0.33594-0.15625-0.66797-0.26953-1-0.34375-0.32422-0.082031-0.65625-0.125-1-0.125-0.98047 0-1.7344 0.32031-2.2656 0.95312-0.53125 0.625-0.79688 1.5273-0.79688 2.7031v5.5156h-3.8125v-11.969h3.8125v1.9688c0.48828-0.78125 1.0508-1.3477 1.6875-1.7031 0.64453-0.36328 1.4102-0.54688 2.2969-0.54688 0.13281 0 0.27344 0.007812 0.42188 0.015625 0.14453 0.011719 0.36328 0.03125 0.65625 0.0625z"/>
  </symbol>
  <symbol id="b" overflow="visible">
   <path d="m13.781-6.0156v1.0938h-8.9375c0.09375 0.89844 0.41406 1.5703 0.96875 2.0156 0.55078 0.44922 1.3281 0.67188 2.3281 0.67188 0.80078 0 1.625-0.11719 2.4688-0.35938 0.84375-0.23828 1.7109-0.59766 2.6094-1.0781v2.9531c-0.90625 0.33594-1.8125 0.58984-2.7188 0.76562s-1.8125 0.26562-2.7188 0.26562c-2.1562 0-3.8398-0.54688-5.0469-1.6406-1.1992-1.1016-1.7969-2.6484-1.7969-4.6406 0-1.9453 0.58594-3.4766 1.7656-4.5938 1.1758-1.125 2.8008-1.6875 4.875-1.6875 1.875 0 3.375 0.57031 4.5 1.7031 1.1328 1.125 1.7031 2.6367 1.7031 4.5312zm-3.9375-1.2656c0-0.72656-0.21484-1.3125-0.64062-1.75-0.41797-0.44531-0.96875-0.67188-1.6562-0.67188-0.74219 0-1.3438 0.21094-1.8125 0.625-0.46094 0.41797-0.74609 1.0156-0.85938 1.7969z"/>
  </symbol>
  <symbol id="l" overflow="visible">
   <path d="m7.2031-5.3906c-0.80469 0-1.4062 0.13672-1.8125 0.40625-0.39844 0.27344-0.59375 0.67188-0.59375 1.2031 0 0.48047 0.16016 0.85938 0.48438 1.1406 0.32031 0.27344 0.77344 0.40625 1.3594 0.40625 0.71875 0 1.3203-0.25391 1.8125-0.76562 0.48828-0.51953 0.73438-1.1719 0.73438-1.9531v-0.4375zm5.8438-1.4375v6.8281h-3.8594v-1.7656c-0.51172 0.71875-1.0898 1.2461-1.7344 1.5781-0.63672 0.33203-1.418 0.5-2.3438 0.5-1.2422 0-2.2461-0.35938-3.0156-1.0781-0.77344-0.72656-1.1562-1.6719-1.1562-2.8281 0-1.3945 0.47656-2.4219 1.4375-3.0781 0.96875-0.65625 2.4883-0.98438 4.5625-0.98438h2.25v-0.29688c0-0.60156-0.24219-1.0469-0.71875-1.3281-0.48047-0.28125-1.2266-0.42188-2.2344-0.42188-0.8125 0-1.5742 0.085937-2.2812 0.25-0.71094 0.15625-1.3672 0.40234-1.9688 0.73438v-2.9219c0.82031-0.19531 1.6445-0.34766 2.4688-0.45312 0.82031-0.10156 1.6484-0.15625 2.4844-0.15625 2.1562 0 3.7109 0.42969 4.6719 1.2812 0.95703 0.84375 1.4375 2.2266 1.4375 4.1406z"/>
  </symbol>
  <symbol id="a" overflow="visible">
   <path d="m6.0156-15.359v3.3906h3.9375v2.7344h-3.9375v5.0781c0 0.55469 0.10938 0.92969 0.32812 1.125 0.21875 0.19922 0.65625 0.29688 1.3125 0.29688h1.9688v2.7344h-3.2812c-1.5117 0-2.5859-0.3125-3.2188-0.9375-0.625-0.63281-0.9375-1.707-0.9375-3.2188v-5.0781h-1.9062v-2.7344h1.9062v-3.3906z"/>
  </symbol>
  <symbol id="f" overflow="visible">
   <path d="m9.9688-10.219v-6.4062h3.8594v16.625h-3.8594v-1.7344c-0.52344 0.71094-1.1016 1.2305-1.7344 1.5625-0.63672 0.32031-1.3711 0.48438-2.2031 0.48438-1.4688 0-2.6797-0.58203-3.625-1.75-0.94922-1.1758-1.4219-2.6875-1.4219-4.5312s0.47266-3.3477 1.4219-4.5156c0.94531-1.1758 2.1562-1.7656 3.625-1.7656 0.83203 0 1.5664 0.16797 2.2031 0.5 0.63281 0.32422 1.2109 0.83594 1.7344 1.5312zm-2.5156 7.75c0.82031 0 1.4453-0.29688 1.875-0.89062 0.42578-0.60156 0.64062-1.4727 0.64062-2.6094 0-1.1445-0.21484-2.0156-0.64062-2.6094-0.42969-0.59375-1.0547-0.89062-1.875-0.89062-0.8125 0-1.4336 0.29688-1.8594 0.89062-0.42969 0.59375-0.64062 1.4648-0.64062 2.6094 0 1.1367 0.21094 2.0078 0.64062 2.6094 0.42578 0.59375 1.0469 0.89062 1.8594 0.89062z"/>
  </symbol>
  <symbol id="k" overflow="visible">
   <path d="m8.2031-2.4688c0.82031 0 1.4453-0.29688 1.875-0.89062 0.42578-0.60156 0.64062-1.4727 0.64062-2.6094 0-1.1445-0.21484-2.0156-0.64062-2.6094-0.42969-0.59375-1.0547-0.89062-1.875-0.89062-0.82422 0-1.4531 0.30469-1.8906 0.90625-0.4375 0.59375-0.65625 1.4609-0.65625 2.5938 0 1.1367 0.21875 2.0078 0.65625 2.6094 0.4375 0.59375 1.0664 0.89062 1.8906 0.89062zm-2.5469-7.75c0.53125-0.69531 1.1133-1.207 1.75-1.5312 0.64453-0.33203 1.3828-0.5 2.2188-0.5 1.4688 0 2.6758 0.58984 3.625 1.7656 0.94531 1.168 1.4219 2.6719 1.4219 4.5156s-0.47656 3.3555-1.4219 4.5312c-0.94922 1.168-2.1562 1.75-3.625 1.75-0.83594 0-1.5742-0.16797-2.2188-0.5-0.63672-0.33203-1.2188-0.84766-1.75-1.5469v1.7344h-3.8125v-16.625h3.8125z"/>
  </symbol>
  <symbol id="e" overflow="visible">
   <path d="m0.26562-11.969h3.8281l3.2188 8.125 2.7344-8.125h3.8125l-5.0312 13.094c-0.5 1.332-1.0898 2.2656-1.7656 2.7969-0.66797 0.53125-1.5547 0.79688-2.6562 0.79688h-2.2188v-2.5h1.2031c0.64453 0 1.1133-0.10547 1.4062-0.3125 0.30078-0.21094 0.53125-0.57812 0.6875-1.1094l0.10938-0.34375z"/>
  </symbol>
  <symbol id="j" overflow="visible">
   <path d="m11.688-2.9062h-6.4375l-1.0156 2.9062h-4.125l5.9062-15.953h4.9062l5.9062 15.953h-4.1406zm-5.4062-2.9531h4.375l-2.1875-6.3438z"/>
  </symbol>
  <symbol id="i" overflow="visible">
   <path d="m12.922-9.9688c0.48828-0.75 1.0625-1.3164 1.7188-1.7031 0.66406-0.38281 1.3984-0.57812 2.2031-0.57812 1.375 0 2.4219 0.42969 3.1406 1.2812 0.71875 0.84375 1.0781 2.0742 1.0781 3.6875v7.2812h-3.8438v-6.2344c0.007812-0.09375 0.015625-0.1875 0.015625-0.28125v-0.4375c0-0.84375-0.125-1.457-0.375-1.8438-0.25-0.38281-0.65234-0.57812-1.2031-0.57812-0.73047 0-1.293 0.30469-1.6875 0.90625-0.38672 0.59375-0.58984 1.4609-0.60938 2.5938v5.875h-3.8438v-6.2344c0-1.3203-0.11719-2.1758-0.34375-2.5625-0.23047-0.38281-0.63672-0.57812-1.2188-0.57812-0.73047 0-1.2969 0.30469-1.7031 0.90625-0.39844 0.60547-0.59375 1.4648-0.59375 2.5781v5.8906h-3.8438v-11.969h3.8438v1.75c0.46875-0.66406 1.0039-1.1719 1.6094-1.5156 0.61328-0.34375 1.2891-0.51562 2.0312-0.51562 0.82031 0 1.5508 0.19922 2.1875 0.59375 0.63281 0.39844 1.1133 0.96094 1.4375 1.6875z"/>
  </symbol>
  <symbol id="h" overflow="visible">
   <path d="m13.859-7.2812v7.2812h-3.8438v-5.5469c0-1.0508-0.027344-1.7695-0.078125-2.1562-0.042969-0.39453-0.12109-0.6875-0.23438-0.875-0.14844-0.25-0.35156-0.44141-0.60938-0.57812-0.25-0.14453-0.54297-0.21875-0.875-0.21875-0.79297 0-1.418 0.3125-1.875 0.9375-0.46094 0.61719-0.6875 1.4648-0.6875 2.5469v5.8906h-3.8125v-16.625h3.8125v6.4062c0.58203-0.69531 1.1953-1.207 1.8438-1.5312 0.64453-0.33203 1.3594-0.5 2.1406-0.5 1.3828 0 2.4297 0.42969 3.1406 1.2812 0.71875 0.84375 1.0781 2.0742 1.0781 3.6875z"/>
  </symbol>
  <symbol id="u" overflow="visible">
   <path d="m11.188-11.594v2.9062c-0.82422-0.34375-1.6172-0.59766-2.375-0.76562-0.76172-0.16406-1.4805-0.25-2.1562-0.25-0.73047 0-1.2734 0.089844-1.625 0.26562-0.35547 0.17969-0.53125 0.46094-0.53125 0.84375 0 0.30469 0.13281 0.53906 0.40625 0.70312 0.26953 0.16797 0.75 0.28906 1.4375 0.35938l0.67188 0.09375c1.957 0.25 3.2734 0.66406 3.9531 1.2344 0.67578 0.57422 1.0156 1.4648 1.0156 2.6719 0 1.2812-0.46875 2.2461-1.4062 2.8906-0.9375 0.63672-2.3438 0.95312-4.2188 0.95312-0.78125 0-1.5938-0.0625-2.4375-0.1875s-1.7148-0.3125-2.6094-0.5625v-2.9062c0.75781 0.375 1.5391 0.65625 2.3438 0.84375 0.80078 0.17969 1.6133 0.26562 2.4375 0.26562 0.75 0 1.3125-0.10156 1.6875-0.3125 0.38281-0.20703 0.57812-0.50781 0.57812-0.90625 0-0.34375-0.13281-0.59766-0.39062-0.76562-0.26172-0.16406-0.78125-0.29688-1.5625-0.39062l-0.67188-0.09375c-1.6992-0.20703-2.8906-0.59766-3.5781-1.1719-0.6875-0.58203-1.0312-1.4609-1.0312-2.6406 0-1.2695 0.42969-2.207 1.2969-2.8125 0.875-0.61328 2.2109-0.92188 4.0156-0.92188 0.69531 0 1.4297 0.054688 2.2031 0.15625 0.78125 0.10547 1.6289 0.27344 2.5469 0.5z"/>
  </symbol>
  <symbol id="t" overflow="visible">
   <path d="m13.109-15.438v3.375c-0.875-0.39453-1.7305-0.69141-2.5625-0.89062-0.83594-0.19531-1.6211-0.29688-2.3594-0.29688-0.99219 0-1.7188 0.13672-2.1875 0.40625-0.46875 0.27344-0.70312 0.6875-0.70312 1.25 0 0.42969 0.15625 0.76172 0.46875 1 0.32031 0.24219 0.89844 0.44922 1.7344 0.625l1.75 0.34375c1.7695 0.35547 3.0312 0.89844 3.7812 1.625 0.75 0.73047 1.125 1.7617 1.125 3.0938 0 1.7617-0.52734 3.0742-1.5781 3.9375-1.043 0.85547-2.6328 1.2812-4.7656 1.2812-1.0117 0-2.0273-0.10156-3.0469-0.29688-1.0234-0.1875-2.043-0.46875-3.0625-0.84375v-3.4688c1.0195 0.53125 2.0039 0.9375 2.9531 1.2188 0.95703 0.27344 1.875 0.40625 2.75 0.40625 0.90625 0 1.5938-0.14453 2.0625-0.4375 0.47656-0.30078 0.71875-0.73438 0.71875-1.2969 0-0.48828-0.16406-0.86719-0.48438-1.1406-0.32422-0.26953-0.96875-0.51562-1.9375-0.73438l-1.5938-0.35938c-1.5938-0.33203-2.7617-0.875-3.5-1.625-0.74219-0.75-1.1094-1.7578-1.1094-3.0312 0-1.582 0.50781-2.8008 1.5312-3.6562 1.0312-0.85156 2.5078-1.2812 4.4375-1.2812 0.875 0 1.7734 0.070313 2.7031 0.20312 0.92578 0.125 1.8828 0.32422 2.875 0.59375z"/>
  </symbol>
  <symbol id="g" overflow="visible">
   <path d="m1.7031-4.6562v-7.3125h3.8438v1.2031c0 0.64844-0.007813 1.4609-0.015625 2.4375v1.9688c0 0.96094 0.023438 1.6523 0.078125 2.0781 0.050781 0.41797 0.13281 0.72656 0.25 0.92188 0.15625 0.25 0.35938 0.44531 0.60938 0.57812 0.25781 0.13672 0.55078 0.20312 0.875 0.20312 0.80078 0 1.4258-0.30469 1.875-0.92188 0.45703-0.61328 0.6875-1.4688 0.6875-2.5625v-5.9062h3.8281v11.969h-3.8281v-1.7344c-0.57422 0.69922-1.1836 1.2148-1.8281 1.5469-0.64844 0.33203-1.3555 0.5-2.125 0.5-1.3867 0-2.4453-0.42188-3.1719-1.2656-0.71875-0.85156-1.0781-2.0859-1.0781-3.7031z"/>
  </symbol>
  <symbol id="s" overflow="visible">
   <path d="m1.8438-11.969h3.8125v11.969h-3.8125zm0-4.6562h3.8125v3.125h-3.8125z"/>
  </symbol>
  <symbol id="c" overflow="visible">
   <path d="m7.5312-9.5156c-0.84375 0-1.4922 0.30859-1.9375 0.92188-0.44922 0.60547-0.67188 1.4805-0.67188 2.625 0 1.1484 0.22266 2.0273 0.67188 2.6406 0.44531 0.60547 1.0938 0.90625 1.9375 0.90625 0.83203 0 1.4688-0.30078 1.9062-0.90625 0.44531-0.61328 0.67188-1.4922 0.67188-2.6406 0-1.1445-0.22656-2.0195-0.67188-2.625-0.4375-0.61328-1.0742-0.92188-1.9062-0.92188zm0-2.7344c2.0508 0 3.6562 0.55859 4.8125 1.6719 1.1641 1.1055 1.75 2.6406 1.75 4.6094s-0.58594 3.5117-1.75 4.625c-1.1562 1.1055-2.7617 1.6562-4.8125 1.6562-2.0625 0-3.6797-0.55078-4.8438-1.6562-1.168-1.1133-1.75-2.6562-1.75-4.625s0.58203-3.5039 1.75-4.6094c1.1641-1.1133 2.7812-1.6719 4.8438-1.6719z"/>
  </symbol>
  <symbol id="r" overflow="visible">
   <path d="m9.7031-16.625v2.5156h-2.1094c-0.54297 0-0.92188 0.10156-1.1406 0.29688-0.21094 0.19922-0.3125 0.53906-0.3125 1.0156v0.82812h3.2656v2.7344h-3.2656v9.2344h-3.8281v-9.2344h-1.8906v-2.7344h1.8906v-0.82812c0-1.3008 0.36328-2.2656 1.0938-2.8906 0.72656-0.625 1.8516-0.9375 3.375-0.9375z"/>
  </symbol>
  <symbol id="q" overflow="visible">
   <path d="m2.0156-15.953h4.5781l5.8125 10.938v-10.938h3.8906v15.953h-4.5938l-5.7969-10.938v10.938h-3.8906z"/>
  </symbol>
  <symbol id="p" overflow="visible">
   <path d="m13.859-7.2812v7.2812h-3.8438v-5.5781c0-1.0312-0.027344-1.7383-0.078125-2.125-0.042969-0.39453-0.12109-0.6875-0.23438-0.875-0.14844-0.25-0.35156-0.44141-0.60938-0.57812-0.25-0.14453-0.54297-0.21875-0.875-0.21875-0.79297 0-1.418 0.3125-1.875 0.9375-0.46094 0.61719-0.6875 1.4648-0.6875 2.5469v5.8906h-3.8125v-11.969h3.8125v1.75c0.58203-0.69531 1.1953-1.207 1.8438-1.5312 0.64453-0.33203 1.3594-0.5 2.1406-0.5 1.3828 0 2.4297 0.42969 3.1406 1.2812 0.71875 0.84375 1.0781 2.0742 1.0781 3.6875z"/>
  </symbol>
  <symbol id="o" overflow="visible">
   <path d="m2.0156-15.953h6.8125c2.0312 0 3.5859 0.45312 4.6719 1.3594 1.0938 0.89844 1.6406 2.1797 1.6406 3.8438 0 1.6797-0.54688 2.9688-1.6406 3.875-1.0859 0.89844-2.6406 1.3438-4.6719 1.3438h-2.7031v5.5312h-4.1094zm4.1094 2.9844v4.4531h2.2656c0.80078 0 1.4141-0.19141 1.8438-0.57812 0.4375-0.38281 0.65625-0.9375 0.65625-1.6562 0-0.70703-0.21875-1.2539-0.65625-1.6406-0.42969-0.38281-1.043-0.57812-1.8438-0.57812z"/>
  </symbol>
  <symbol id="n" overflow="visible">
   <path d="m1.8438-11.969h3.8125v11.75c0 1.6016-0.38672 2.8281-1.1562 3.6719-0.76172 0.84375-1.8711 1.2656-3.3281 1.2656h-1.8906v-2.5h0.65625c0.72656 0 1.2266-0.16797 1.5-0.5 0.26953-0.32422 0.40625-0.96875 0.40625-1.9375zm0-4.6562h3.8125v3.125h-3.8125z"/>
  </symbol>
  <symbol id="m" overflow="visible">
   <path d="m11.5-11.594v3.125c-0.52344-0.35156-1.043-0.61328-1.5625-0.78125-0.52344-0.17578-1.0625-0.26562-1.625-0.26562-1.0742 0-1.9062 0.3125-2.5 0.9375s-0.89062 1.4961-0.89062 2.6094c0 1.1172 0.29688 1.9844 0.89062 2.6094s1.4258 0.9375 2.5 0.9375c0.59375 0 1.1562-0.085937 1.6875-0.26562 0.53906-0.17578 1.0391-0.44141 1.5-0.79688v3.125c-0.59375 0.23047-1.1992 0.39453-1.8125 0.5-0.61719 0.11328-1.2344 0.17188-1.8594 0.17188-2.1562 0-3.8438-0.55078-5.0625-1.6562-1.2188-1.1133-1.8281-2.6562-1.8281-4.625s0.60938-3.5039 1.8281-4.6094c1.2188-1.1133 2.9062-1.6719 5.0625-1.6719 0.625 0 1.2383 0.058594 1.8438 0.17188 0.61328 0.10547 1.2227 0.26562 1.8281 0.48438z"/>
  </symbol>
 </defs>
 <g>
  <path d="m319.38 193.66v-11.055c0-6.6055-5.3711-11.977-11.973-11.977h-2.3008c-6.6055 0-11.977 5.3711-11.977 11.969v11.055c0 6.6055 5.3711 11.977 11.973 11.977h2.3008c6.6055 0 11.977-5.3711 11.977-11.969zm-8.75 0c0 1.7734-1.4492 3.2188-3.2227 3.2188h-2.3008c-1.7773 0-3.2266-1.4453-3.2266-3.2188v-11.055c0-1.7812 1.4492-3.2266 3.2227-3.2266h2.3008c1.7773 0 3.2266 1.4453 3.2266 3.2188z"/>
  <path d="m394.9 170.62h-2.3008c-6.6055 0-11.977 5.3711-11.977 11.969v11.055c0 6.6055 5.3711 11.977 11.973 11.977h2.3008c6.6055 0 11.977-5.3711 11.977-11.969v-11.055c0-6.6055-5.3711-11.977-11.973-11.977zm3.2227 23.031c0 1.7734-1.4492 3.2188-3.2227 3.2188h-2.3008c-1.7773 0-3.2266-1.4453-3.2266-3.2188v-11.055c0-1.7812 1.4492-3.2266 3.2227-3.2266h2.3008c1.7773 0 3.2266 1.4453 3.2266 3.2188z"/>
  <path d="m319.38 165.79c2.1289 0 4-1.5586 4.3242-3.7305 0.35547-2.3906-1.2891-4.6172-3.6836-4.9727l-26.25-3.9141c-2.3711-0.31641-4.6172 1.2969-4.9727 3.6836-0.35547 2.3906 1.2891 4.6172 3.6836 4.9727l26.25 3.9141c0.21484 0.03125 0.43359 0.046874 0.64844 0.046874z"/>
  <path d="m380.62 165.79c0.21484 0 0.43359-0.015624 0.65234-0.046874l26.25-3.9141c2.3906-0.35938 4.0391-2.5859 3.6836-4.9727-0.35938-2.3906-2.6016-4.0078-4.9727-3.6836l-26.25 3.9141c-2.3906 0.35937-4.0391 2.5859-3.6836 4.9727 0.32031 2.1719 2.1875 3.7305 4.3203 3.7305z"/>
  <path d="m386.54 266.01c-1.6445-1.7734-4.418-1.8672-6.1836-0.21875-7.7227 7.1914-41.285 7.2969-60.617 5.6719-2.4531-0.24219-4.5234 1.582-4.7305 3.9883-0.20312 2.4102 1.582 4.5234 3.9961 4.7266 2.2109 0.1875 11.359 0.89844 22.375 0.89844 16.473 0 37.117-1.582 44.945-8.8828 1.7656-1.6445 1.8594-4.4141 0.21484-6.1836z"/>
  <path d="m608.12 530.09v-5.0898c0-8.7812-3.4023-14.07-11.754-18.258-4.2148-2.1133-5.6875-12.223-5.7461-16.742v-8.75c0-5.6797-3.8555-10.598-9.0156-12.375l-4.1094-53.25v-13.125h4.375c7.2344 0 13.125-5.8906 13.125-13.125 0-5.7188-3.6719-10.586-8.7812-12.387 0.023438-0.24219 0.03125-0.48828 0.03125-0.73828 0-4.8242-3.9258-8.75-8.75-8.75v-8.75c7.2344 0 13.125-5.8906 13.125-13.125 0-4.6289-2.3711-8.7461-6.1016-11.086l5.9922-26.219c0.47266-2.0781-0.61719-4.1914-2.582-5.0156l-10.434-4.3477v-5.832c0-2.418-1.9609-4.375-4.375-4.375v-4.375c0-2.418-1.9609-4.375-4.375-4.375h4.375c2.4141 0 4.375-1.957 4.375-4.375v-17.5c0-2.418-1.9609-4.375-4.375-4.375h-8.75v-10.246c0-1.5586-0.83203-3.0039-2.1836-3.7852l-8.75-5.0664c-1.3555-0.78906-3.0273-0.78906-4.3828 0l-8.75 5.0664c-1.3516 0.78516-2.1836 2.2266-2.1836 3.7852v10.246h-8.75c-2.4141 0-4.375 1.957-4.375 4.375v17.5c0 2.418 1.9609 4.375 4.375 4.375h4.375c-2.4141 0-4.375 1.957-4.375 4.375v4.375c-2.4141 0-4.375 1.957-4.375 4.375v5.832l-10.434 4.3477c-1.9648 0.82422-3.0586 2.9375-2.582 5.0156l5.9922 26.219c-3.7305 2.3398-6.1016 6.457-6.1016 11.086 0 7.2344 5.8906 13.125 13.125 13.125v8.75c-4.8242 0-8.75 3.9258-8.75 8.75 0 0.25 0.007812 0.49609 0.03125 0.73828-5.1094 1.8008-8.7812 6.668-8.7812 12.387 0 7.2344 5.8906 13.125 13.125 13.125h4.3789l0.007813 12.789-0.54297 7.0664c-28.52-31.43-68.188-49.578-110.7-50.398l-11.898-19.832c-0.32812-0.54688-0.78906-0.98438-1.3008-1.3359l-1.2383-24.754c34.207-15.793 59.617-47.465 66.742-85.516 0.42188 0.023438 0.83594 0.082031 1.2539 0.082031 13.973 0 28.23-12.785 33.629-31.324 3.5664-12.242 2.6328-25.062-2.5-34.309-3.4883-6.2852-8.6016-10.523-14.789-12.262-4.5273-1.2695-9.3203-1.0781-14.027 0.48438 9.1641-50.996-6.6055-79.91-10.32-85.812-0.97266-47.375-52.223-64.254-96.199-64.254-67.238 0-92.578 21.422-117.08 42.141-12.625 10.676-24.551 20.758-42.121 28.207-1.457 0.62109-2.4688 1.9727-2.6406 3.5508-0.12109 1.1211 0.21094 2.2188 0.86719 3.0977l-0.011719 0.007812c0.15625 0.21094 15.117 20.719 27.887 72.98-4.5977-1.4648-9.2734-1.6328-13.695-0.39453-6.1875 1.7383-11.301 5.9766-14.789 12.262-5.1328 9.2383-6.0625 22.066-2.5 34.309 5.3984 18.543 19.656 31.324 33.629 31.324 0.42188 0 0.83594-0.0625 1.2539-0.082031 7.1211 38.051 32.531 69.719 66.742 85.516l-1.2383 24.746c-0.51172 0.35156-0.97266 0.78906-1.3008 1.3359l-11.895 19.824c-83.27 1.6094-150.61 69.73-150.61 153.05v26.25c0 2.418 1.9609 4.375 4.375 4.375h463.81c7.2031 0 13.062-5.3008 13.062-11.82v-2.6094c0-5.1445-3.6719-9.4844-8.75-11.105zm-15.676-15.527c5.9648 2.9922 6.9258 5.5273 6.9258 10.438v4.375h-96.25v-4.375c0-4.9102 0.96094-7.4453 6.9258-10.438 10.098-5.0625 10.551-22.543 10.574-24.562v-8.75c0-2.25 2.125-4.375 4.375-4.375h52.5c2.25 0 4.375 2.125 4.375 4.375v8.793c0.015625 1.9727 0.47266 19.457 10.574 24.52zm-58.699-112.06h35.004l0.007813 13.461 4.0117 52.164h-43.051l4.0273-52.5zm4.375-109.38v-4.375c2.4141 0 4.375-1.957 4.375-4.375 0-2.1211 0.80859-4.1875 2.2812-5.8242 1.1562-1.2812 1.4492-3.1289 0.74219-4.7031-0.70313-1.5781-2.2695-2.5977-4-2.5977h-7.7734v-8.75h8.75c2.4141 0 4.375-1.957 4.375-4.375v-12.102l4.375-2.5312 4.375 2.5312v12.102c0 2.418 1.9609 4.375 4.375 4.375h8.75v8.75h-7.7773c-1.7266 0-3.293 1.0156-4 2.5977-0.70312 1.5742-0.41016 3.4219 0.74219 4.7031 1.4766 1.6367 2.2852 3.7031 2.2852 5.8242 0 2.418 1.9609 4.375 4.375 4.375v4.375c0 2.418 1.9609 4.375 4.375 4.375h-35c2.4141 0 4.375-1.957 4.375-4.375zm-17.5 52.5c0-2.0469 1.3984-3.793 3.4023-4.2539 1.1289-0.25781 2.1133-0.95312 2.7305-1.9336 0.61719-0.98047 0.82422-2.1719 0.55859-3.3047l-5.9844-26.172 8.918-3.7109h42.004l8.9102 3.7148-5.9844 26.172c-0.25781 1.1328-0.058594 2.3203 0.55859 3.3047 0.61719 0.98438 1.6016 1.6797 2.7305 1.9336 2.0078 0.45703 3.4062 2.2031 3.4062 4.25 0 2.4141-1.9648 4.375-4.375 4.375h-4.375c-2.4141 0-4.375 1.957-4.375 4.375v13.125h-35v-13.125c0-2.418-1.9609-4.375-4.375-4.375h-4.375c-2.4102 0-4.375-1.9609-4.375-4.375zm0 48.125c-2.4102 0-4.375-1.9609-4.375-4.375s1.9648-4.375 4.375-4.375h4.375c2.4141 0 4.375-1.957 4.375-4.375s-1.9609-4.375-4.375-4.375h52.5c-2.4141 0-4.375 1.957-4.375 4.375s1.9609 4.375 4.375 4.375h4.375c2.4102 0 4.375 1.9609 4.375 4.375s-1.9648 4.375-4.375 4.375zm2.8945 40.938-2.6289 34.191c-5.1641 1.7773-9.0156 6.6992-9.0156 12.371v8.707c-0.039062 4.3789-1.5469 14.68-5.7461 16.785-8.3516 4.1875-11.754 9.4766-11.754 18.258v5.0898c-5.0781 1.625-8.75 5.9648-8.75 11.109v2.6094c0 1.0664 0.21094 2.0859 0.50391 3.0703h-29.316l18.781-18.781c0.91016-0.91016 1.375-2.1719 1.2695-3.4531s-0.76953-2.4531-1.8203-3.1992l-26.129-18.664 30.84-26.984c1.0547-0.92578 1.6055-2.3008 1.4727-3.7031l-7.1602-76.922c18.895 9.2031 35.773 22.594 49.453 39.516zm-80.676-50.465c7.5547 1.7109 14.926 4.0391 22.062 6.9219l7.4023 79.543-33.32 29.152c-1.0078 0.87891-1.5547 2.1758-1.4883 3.5078 0.066406 1.3398 0.73828 2.5664 1.8281 3.3477l26.422 18.875-21.312 21.305h-61.902zm-27.219 48.242v-51.699c6.2461 0.20703 12.43 0.79297 18.512 1.7812zm-8.75-55.004v56.871l-49.949-28.539 40.465-44.145zm74.438-206.32c4.9141 1.3789 7.8789 5.1562 9.5039 8.0859 4.0195 7.2461 4.6719 17.57 1.75 27.613-4.2344 14.535-15.156 24.984-25.184 24.996 0.47656-4.2969 0.74219-8.6602 0.74219-13.082v-45.145c4.4531-2.6758 9.0703-3.625 13.188-2.4688zm-19.691-12.527c-7.5781-12.07-21.469-32.586-36.363-46.672 16.492-6.7383 25.926-14.801 30.52-22.141 4.8477 11.547 11.348 34.703 5.8438 68.812zm-209.93-96.664c24.371-20.605 47.398-40.07 111.43-40.07 83.281 0 87.5 47.375 87.5 56.875 0 10.215-23.309 39.375-126.88 39.375-52.594 0-93.633-20.918-109.01-30.031 14.938-7.5312 26.105-16.973 36.957-26.148zm15.547 57.445c-12.641 12.879-23.199 29.09-29.277 39.328-7.0625-28.316-14.664-47.215-20.305-58.836 11.129 5.9961 28.176 13.82 49.582 19.508zm-59.805 87.445c-2.9219-10.051-2.2695-20.371 1.75-27.613 1.6289-2.9258 4.5938-6.7031 9.5039-8.0859 4.1172-1.1523 8.7266-0.20312 13.188 2.4727l-0.003906 45.141c0 4.4219 0.26562 8.7852 0.73828 13.082-10.031-0.007812-20.945-10.457-25.176-24.996zm33.188 11.914v-46.961c2.6641-4.9688 17.98-32.68 36.699-49.969 14.02 3.0508 29.609 5.0547 46.426 5.0547 41.656 0 71.363-4.7539 92.176-11.535 20.141 17.363 40.016 50.578 43.449 56.461v46.949c0 60.309-49.066 109.38-109.38 109.38s-109.38-49.066-109.38-109.38zm109.38 118.12c14.32 0 28.047-2.5625 40.758-7.2539l1.2461 24.953-42.004 45.824-42.004-45.824 1.2461-24.953c12.711 4.6914 26.438 7.2539 40.758 7.2539zm-56.875 40.586 9.4844-15.812 40.465 44.145-49.949 28.539zm56.875 34.453 59.078 33.758c0.46094 0.26172 0.96094 0.40234 1.4688 0.48438l-37.344 100.72h-46.406l-37.34-100.72c0.50781-0.082031 1.0078-0.22266 1.4688-0.48438zm-88.992 87.918-33.32-29.152 7.4023-79.527c7.1016-2.8672 14.473-5.1836 22.07-6.9062l60.305 162.63h-61.902l-21.316-21.316 26.422-18.875c1.0898-0.77734 1.7617-2.0078 1.8281-3.3477 0.066406-1.332-0.48047-2.625-1.4883-3.5039zm4.8516-117.3c6.0547-0.98438 12.238-1.5703 18.516-1.7773v51.719zm-121.48 142.47c0-56.918 33.328-106.32 81.555-129.81l-7.1562 76.902c-0.13281 1.3945 0.42187 2.7734 1.4727 3.7031l30.84 26.984-26.129 18.664c-1.0469 0.75-1.7109 1.918-1.8203 3.1992s0.35938 2.543 1.2695 3.4531l18.781 18.781h-98.812zm463.75 18.805c0 1.6367-2.0117 3.0703-4.3125 3.0703h-105.12c-2.3008 0-4.3125-1.4336-4.3125-3.0703v-2.6094c0-1.6367 2.0117-3.0703 4.3125-3.0703h105.12c2.2969 0 4.3125 1.4336 4.3125 3.0703z"/>
 </g>
</svg>
