<?xml version="1.0" encoding="UTF-8"?>
<svg width="700pt" height="700pt" version="1.1" viewBox="0 0 700 700" xmlns="http://www.w3.org/2000/svg" xmlns:xlink="http://www.w3.org/1999/xlink">
 <defs>
  <symbol id="v" overflow="visible">
   <path d="m8.0781-0.48438c-0.41797 0.21875-0.85156 0.38281-1.2969 0.48438-0.44922 0.11328-0.92188 0.17188-1.4219 0.17188-1.4609 0-2.6211-0.40625-3.4844-1.2188-0.85547-0.82031-1.2812-1.9375-1.2812-3.3438s0.42578-2.5156 1.2812-3.3281c0.86328-0.82031 2.0234-1.2344 3.4844-1.2344 0.5 0 0.97266 0.058594 1.4219 0.17188 0.44531 0.10547 0.87891 0.26562 1.2969 0.48438v1.8125c-0.41797-0.28125-0.83594-0.48828-1.25-0.625-0.40625-0.13281-0.83594-0.20312-1.2812-0.20312-0.8125 0-1.4531 0.26172-1.9219 0.78125-0.46094 0.52344-0.6875 1.2344-0.6875 2.1406s0.22656 1.6211 0.6875 2.1406c0.46875 0.52344 1.1094 0.78125 1.9219 0.78125 0.44531 0 0.875-0.066406 1.2812-0.20312 0.41406-0.13281 0.83203-0.34375 1.25-0.625z"/>
  </symbol>
  <symbol id="c" overflow="visible">
   <path d="m5.9062-4.7969c-0.17969-0.09375-0.35938-0.15625-0.54688-0.1875-0.17969-0.039063-0.35938-0.0625-0.54688-0.0625-0.54297 0-0.96094 0.17188-1.25 0.51562-0.29297 0.34375-0.4375 0.83984-0.4375 1.4844v3.0469h-2.1094v-6.5938h2.1094v1.0781c0.26953-0.42578 0.57812-0.73828 0.92188-0.9375 0.35156-0.19531 0.77344-0.29688 1.2656-0.29688 0.070312 0 0.14844 0.007812 0.23438 0.015625 0.082031 0 0.20312 0.011719 0.35938 0.03125z"/>
  </symbol>
  <symbol id="a" overflow="visible">
   <path d="m7.5938-3.3125v0.59375h-4.9219c0.050781 0.5 0.22656 0.875 0.53125 1.125 0.30078 0.24219 0.72656 0.35938 1.2812 0.35938 0.44531 0 0.89844-0.0625 1.3594-0.1875 0.46875-0.13281 0.94531-0.33594 1.4375-0.60938v1.625c-0.5 0.1875-1 0.32812-1.5 0.42188-0.49219 0.10156-0.98438 0.15625-1.4844 0.15625-1.1992 0-2.1328-0.30078-2.7969-0.90625-0.65625-0.61328-0.98438-1.4688-0.98438-2.5625 0-1.0703 0.32031-1.9141 0.96875-2.5312 0.65625-0.61328 1.5508-0.92188 2.6875-0.92188 1.0391 0 1.8672 0.3125 2.4844 0.9375 0.625 0.625 0.9375 1.4609 0.9375 2.5zm-2.1562-0.70312c0-0.40625-0.12109-0.72656-0.35938-0.96875-0.23047-0.25-0.53125-0.375-0.90625-0.375-0.41797 0-0.75781 0.11719-1.0156 0.34375-0.25 0.23047-0.40625 0.5625-0.46875 1z"/>
  </symbol>
  <symbol id="k" overflow="visible">
   <path d="m3.9688-2.9688c-0.4375 0-0.77344 0.078125-1 0.23438-0.21875 0.14844-0.32812 0.36719-0.32812 0.65625 0 0.26172 0.085937 0.46875 0.26562 0.625 0.1875 0.14844 0.4375 0.21875 0.75 0.21875 0.39453 0 0.72656-0.14062 1-0.42188 0.26953-0.28125 0.40625-0.64062 0.40625-1.0781v-0.23438zm3.2188-0.79688v3.7656h-2.125v-0.98438c-0.28125 0.40625-0.60156 0.70312-0.95312 0.89062-0.35547 0.17578-0.78125 0.26562-1.2812 0.26562-0.6875 0-1.2461-0.19531-1.6719-0.59375-0.42969-0.40625-0.64062-0.92578-0.64062-1.5625 0-0.76953 0.26562-1.332 0.79688-1.6875 0.53125-0.36328 1.3672-0.54688 2.5156-0.54688h1.2344v-0.17188c0-0.33203-0.13281-0.57812-0.39062-0.73438-0.26172-0.15625-0.67188-0.23438-1.2344-0.23438-0.44922 0-0.87109 0.046875-1.2656 0.14062-0.38672 0.09375-0.74609 0.23047-1.0781 0.40625v-1.6094c0.44531-0.10156 0.89844-0.17969 1.3594-0.23438 0.45703-0.0625 0.91406-0.09375 1.375-0.09375 1.1875 0 2.0391 0.23438 2.5625 0.70312 0.53125 0.46875 0.79688 1.2305 0.79688 2.2812z"/>
  </symbol>
  <symbol id="b" overflow="visible">
   <path d="m3.3125-8.4688v1.875h2.1719v1.5h-2.1719v2.7969c0 0.3125 0.0625 0.52344 0.1875 0.625 0.125 0.10547 0.36328 0.15625 0.71875 0.15625h1.0938v1.5156h-1.8125c-0.83594 0-1.4297-0.17188-1.7812-0.51562-0.34375-0.35156-0.51562-0.94531-0.51562-1.7812v-2.7969h-1.0469v-1.5h1.0469v-1.875z"/>
  </symbol>
  <symbol id="f" overflow="visible">
   <path d="m5.5-5.625v-3.5469h2.125v9.1719h-2.125v-0.95312c-0.29297 0.38672-0.61719 0.67188-0.96875 0.85938-0.34375 0.17578-0.74609 0.26562-1.2031 0.26562-0.8125 0-1.4805-0.32031-2-0.96875-0.52344-0.64453-0.78125-1.4766-0.78125-2.5 0-1.0078 0.25781-1.8359 0.78125-2.4844 0.51953-0.64453 1.1875-0.96875 2-0.96875 0.45703 0 0.85938 0.09375 1.2031 0.28125 0.35156 0.17969 0.67578 0.46094 0.96875 0.84375zm-1.3906 4.2656c0.44531 0 0.78906-0.16016 1.0312-0.48438 0.23828-0.33203 0.35938-0.81641 0.35938-1.4531 0-0.625-0.12109-1.0977-0.35938-1.4219-0.24219-0.33203-0.58594-0.5-1.0312-0.5-0.44922 0-0.79297 0.16797-1.0312 0.5-0.23047 0.32422-0.34375 0.79688-0.34375 1.4219 0 0.63672 0.11328 1.1211 0.34375 1.4531 0.23828 0.32422 0.58203 0.48438 1.0312 0.48438z"/>
  </symbol>
  <symbol id="j" overflow="visible">
   <path d="m4.5312-1.3594c0.44531 0 0.78516-0.16016 1.0156-0.48438 0.23828-0.33203 0.35938-0.81641 0.35938-1.4531 0-0.625-0.12109-1.0977-0.35938-1.4219-0.23047-0.33203-0.57031-0.5-1.0156-0.5-0.46094 0-0.80859 0.16797-1.0469 0.5-0.24219 0.32422-0.35938 0.79688-0.35938 1.4219s0.11719 1.1055 0.35938 1.4375c0.23828 0.33594 0.58594 0.5 1.0469 0.5zm-1.4062-4.2656c0.28906-0.38281 0.61328-0.66406 0.96875-0.84375 0.35156-0.1875 0.75781-0.28125 1.2188-0.28125 0.8125 0 1.4766 0.32422 2 0.96875 0.51953 0.64844 0.78125 1.4766 0.78125 2.4844 0 1.0234-0.26172 1.8555-0.78125 2.5-0.52344 0.64844-1.1875 0.96875-2 0.96875-0.46094 0-0.86719-0.089844-1.2188-0.26562-0.35547-0.1875-0.67969-0.47266-0.96875-0.85938v0.95312h-2.1094v-9.1719h2.1094z"/>
  </symbol>
  <symbol id="i" overflow="visible">
   <path d="m0.14062-6.5938h2.1094l1.7812 4.4688 1.5-4.4688h2.1094l-2.7656 7.2188c-0.28125 0.72656-0.60938 1.2383-0.98438 1.5312-0.36719 0.30078-0.85547 0.45312-1.4688 0.45312h-1.2188v-1.3906h0.65625c0.36328 0 0.625-0.058594 0.78125-0.17188 0.16406-0.11719 0.29688-0.32031 0.39062-0.60938l0.0625-0.1875z"/>
  </symbol>
  <symbol id="e" overflow="visible">
   <path d="m6.3438-6.3906v1.7188c-0.29297-0.19531-0.58594-0.34375-0.875-0.4375-0.28125-0.09375-0.57812-0.14062-0.89062-0.14062-0.58594 0-1.043 0.17188-1.375 0.51562-0.32422 0.34375-0.48438 0.82422-0.48438 1.4375 0 0.61719 0.16016 1.0938 0.48438 1.4375 0.33203 0.34375 0.78906 0.51562 1.375 0.51562 0.33203 0 0.64453-0.046875 0.9375-0.14062 0.30078-0.09375 0.57812-0.23828 0.82812-0.4375v1.7344c-0.33594 0.11719-0.67188 0.20312-1.0156 0.26562-0.33594 0.0625-0.67188 0.09375-1.0156 0.09375-1.1875 0-2.1211-0.30078-2.7969-0.90625-0.66797-0.61328-1-1.4688-1-2.5625 0-1.082 0.33203-1.9258 1-2.5312 0.67578-0.61328 1.6094-0.92188 2.7969-0.92188 0.34375 0 0.67969 0.03125 1.0156 0.09375 0.34375 0.054688 0.67969 0.14062 1.0156 0.26562z"/>
  </symbol>
  <symbol id="d" overflow="visible">
   <path d="m4.1562-5.25c-0.46875 0-0.82812 0.17188-1.0781 0.51562-0.24219 0.33594-0.35938 0.8125-0.35938 1.4375 0 0.63672 0.11719 1.1211 0.35938 1.4531 0.25 0.33594 0.60938 0.5 1.0781 0.5 0.45703 0 0.80469-0.16406 1.0469-0.5 0.25-0.33203 0.375-0.81641 0.375-1.4531 0-0.625-0.125-1.1016-0.375-1.4375-0.24219-0.34375-0.58984-0.51562-1.0469-0.51562zm0-1.5c1.1328 0 2.0195 0.30859 2.6562 0.92188 0.63281 0.60547 0.95312 1.4492 0.95312 2.5312 0 1.0859-0.32031 1.9336-0.95312 2.5469-0.63672 0.61719-1.5234 0.92188-2.6562 0.92188-1.1484 0-2.043-0.30469-2.6875-0.92188-0.63672-0.61328-0.95312-1.4609-0.95312-2.5469 0-1.082 0.31641-1.9258 0.95312-2.5312 0.64453-0.61328 1.5391-0.92188 2.6875-0.92188z"/>
  </symbol>
  <symbol id="u" overflow="visible">
   <path d="m3.125-0.95312v3.4688h-2.1094v-9.1094h2.1094v0.96875c0.28906-0.38281 0.61328-0.66406 0.96875-0.84375 0.35156-0.1875 0.75781-0.28125 1.2188-0.28125 0.8125 0 1.4766 0.32422 2 0.96875 0.51953 0.64844 0.78125 1.4766 0.78125 2.4844 0 1.0234-0.26172 1.8555-0.78125 2.5-0.52344 0.64844-1.1875 0.96875-2 0.96875-0.46094 0-0.86719-0.089844-1.2188-0.26562-0.35547-0.1875-0.67969-0.47266-0.96875-0.85938zm1.4062-4.2656c-0.46094 0-0.80859 0.16797-1.0469 0.5-0.24219 0.32422-0.35938 0.79688-0.35938 1.4219s0.11719 1.1055 0.35938 1.4375c0.23828 0.33594 0.58594 0.5 1.0469 0.5 0.44531 0 0.78516-0.16016 1.0156-0.48438 0.23828-0.33203 0.35938-0.81641 0.35938-1.4531 0-0.625-0.12109-1.0977-0.35938-1.4219-0.23047-0.33203-0.57031-0.5-1.0156-0.5z"/>
  </symbol>
  <symbol id="h" overflow="visible">
   <path d="m0.9375-2.5625v-4.0312h2.125v0.65625c0 0.35547-0.007812 0.80469-0.015625 1.3438v1.0781c0 0.53125 0.015625 0.91797 0.046875 1.1562 0.03125 0.23047 0.078125 0.39844 0.14062 0.5 0.082031 0.13672 0.19141 0.24609 0.32812 0.32812 0.14453 0.074219 0.30469 0.10938 0.48438 0.10938 0.44531 0 0.79688-0.16406 1.0469-0.5 0.25-0.34375 0.375-0.81641 0.375-1.4219v-3.25h2.1094v6.5938h-2.1094v-0.95312c-0.32422 0.38672-0.66406 0.67188-1.0156 0.85938-0.35547 0.17578-0.74609 0.26562-1.1719 0.26562-0.76172 0-1.3438-0.23438-1.75-0.70312-0.39844-0.46875-0.59375-1.1445-0.59375-2.0312z"/>
  </symbol>
  <symbol id="t" overflow="visible">
   <path d="m6.1719-6.3906v1.6094c-0.46094-0.19531-0.89844-0.34375-1.3125-0.4375-0.41797-0.09375-0.8125-0.14062-1.1875-0.14062-0.40625 0-0.71094 0.054687-0.90625 0.15625-0.1875 0.10547-0.28125 0.26172-0.28125 0.46875 0 0.16797 0.070313 0.29688 0.21875 0.39062 0.14453 0.085938 0.41016 0.14844 0.79688 0.1875l0.375 0.0625c1.0703 0.13672 1.7969 0.35938 2.1719 0.67188s0.5625 0.80859 0.5625 1.4844c0 0.69922-0.26172 1.2266-0.78125 1.5781-0.52344 0.35547-1.293 0.53125-2.3125 0.53125-0.4375 0-0.89062-0.039063-1.3594-0.10938-0.46875-0.0625-0.94922-0.16016-1.4375-0.29688v-1.6094c0.42578 0.21094 0.85938 0.36719 1.2969 0.46875 0.44531 0.09375 0.89453 0.14062 1.3438 0.14062 0.41406 0 0.72656-0.054687 0.9375-0.17188 0.20703-0.11328 0.3125-0.28125 0.3125-0.5 0-0.1875-0.074219-0.32812-0.21875-0.42188-0.14844-0.09375-0.43359-0.16406-0.85938-0.21875l-0.375-0.046875c-0.9375-0.11328-1.5938-0.32812-1.9688-0.64062-0.375-0.32031-0.5625-0.80469-0.5625-1.4531 0-0.70703 0.23828-1.2266 0.71875-1.5625 0.47656-0.33203 1.2109-0.5 2.2031-0.5 0.38281 0 0.78906 0.03125 1.2188 0.09375 0.42578 0.054688 0.89453 0.14062 1.4062 0.26562z"/>
  </symbol>
  <symbol id="s" overflow="visible">
   <path d="m1.0156-9.1719h2.1094v9.1719h-2.1094z"/>
  </symbol>
  <symbol id="g" overflow="visible">
   <path d="m1.0156-6.5938h2.1094v6.5938h-2.1094zm0-2.5781h2.1094v1.7344h-2.1094z"/>
  </symbol>
  <symbol id="r" overflow="visible">
   <path d="m5.3594-9.1719v1.3906h-1.1719c-0.30469 0-0.51172 0.058594-0.625 0.17188-0.11719 0.10547-0.17188 0.28906-0.17188 0.54688v0.46875h1.7969v1.5h-1.7969v5.0938h-2.1094v-5.0938h-1.0469v-1.5h1.0469v-0.46875c0-0.71875 0.19531-1.25 0.59375-1.5938 0.40625-0.34375 1.0234-0.51562 1.8594-0.51562z"/>
  </symbol>
  <symbol id="q" overflow="visible">
   <path d="m7.125-5.5c0.26953-0.40625 0.58594-0.71094 0.95312-0.92188 0.36328-0.21875 0.76562-0.32812 1.2031-0.32812 0.75781 0 1.3359 0.23438 1.7344 0.70312 0.39453 0.46094 0.59375 1.1367 0.59375 2.0312v4.0156h-2.1094v-3.4375-0.15625-0.23438c0-0.46875-0.070312-0.80469-0.20312-1.0156-0.13672-0.21875-0.35547-0.32812-0.65625-0.32812-0.40625 0-0.71875 0.16797-0.9375 0.5-0.21875 0.33594-0.32812 0.8125-0.32812 1.4375v3.2344h-2.125v-3.4375c0-0.72656-0.0625-1.1953-0.1875-1.4062-0.125-0.21875-0.35156-0.32812-0.67188-0.32812-0.40625 0-0.71875 0.16797-0.9375 0.5-0.21875 0.33594-0.32812 0.80859-0.32812 1.4219v3.25h-2.125v-6.5938h2.125v0.96875c0.25781-0.375 0.55469-0.65625 0.89062-0.84375 0.33203-0.1875 0.70312-0.28125 1.1094-0.28125 0.45703 0 0.85938 0.10938 1.2031 0.32812 0.35156 0.21875 0.61719 0.52734 0.79688 0.92188z"/>
  </symbol>
  <symbol id="p" overflow="visible">
   <path d="m7.6406-4.0156v4.0156h-2.1094v-3.0625c0-0.57031-0.015625-0.96875-0.046875-1.1875-0.023437-0.21875-0.0625-0.37891-0.125-0.48438-0.085937-0.13281-0.19922-0.23828-0.34375-0.3125-0.13672-0.082031-0.29688-0.125-0.48438-0.125-0.4375 0-0.78125 0.17188-1.0312 0.51562s-0.375 0.8125-0.375 1.4062v3.25h-2.1094v-9.1719h2.1094v3.5469c0.3125-0.38281 0.64453-0.66406 1-0.84375 0.36328-0.1875 0.75781-0.28125 1.1875-0.28125 0.76953 0 1.3477 0.23438 1.7344 0.70312 0.39453 0.46094 0.59375 1.1367 0.59375 2.0312z"/>
  </symbol>
  <symbol id="o" overflow="visible">
   <path d="m1.1094-8.7969h2.5312l3.2031 6.0312v-6.0312h2.1406v8.7969h-2.5312l-3.2031-6.0312v6.0312h-2.1406z"/>
  </symbol>
  <symbol id="n" overflow="visible">
   <path d="m7.6406-4.0156v4.0156h-2.1094v-3.0781c0-0.5625-0.015625-0.95312-0.046875-1.1719-0.023437-0.21875-0.0625-0.37891-0.125-0.48438-0.085937-0.13281-0.19922-0.23828-0.34375-0.3125-0.13672-0.082031-0.29688-0.125-0.48438-0.125-0.4375 0-0.78125 0.17188-1.0312 0.51562s-0.375 0.8125-0.375 1.4062v3.25h-2.1094v-6.5938h2.1094v0.96875c0.3125-0.38281 0.64453-0.66406 1-0.84375 0.36328-0.1875 0.75781-0.28125 1.1875-0.28125 0.76953 0 1.3477 0.23438 1.7344 0.70312 0.39453 0.46094 0.59375 1.1367 0.59375 2.0312z"/>
  </symbol>
  <symbol id="m" overflow="visible">
   <path d="m1.1094-8.7969h3.7656c1.1133 0 1.9688 0.25 2.5625 0.75 0.60156 0.5 0.90625 1.2109 0.90625 2.125 0 0.91797-0.30469 1.625-0.90625 2.125-0.59375 0.5-1.4492 0.75-2.5625 0.75h-1.5v3.0469h-2.2656zm2.2656 1.6406v2.4688h1.25c0.44531 0 0.78516-0.10938 1.0156-0.32812 0.23828-0.21875 0.35938-0.51953 0.35938-0.90625 0-0.39453-0.12109-0.69531-0.35938-0.90625-0.23047-0.21875-0.57031-0.32812-1.0156-0.32812z"/>
  </symbol>
  <symbol id="l" overflow="visible">
   <path d="m1.0156-6.5938h2.1094v6.4688c0 0.88281-0.21484 1.5625-0.64062 2.0312-0.42969 0.46875-1.043 0.70312-1.8438 0.70312h-1.0469v-1.3906h0.375c0.39453 0 0.66406-0.09375 0.8125-0.28125 0.15625-0.17969 0.23438-0.53125 0.23438-1.0625zm0-2.5781h2.1094v1.7344h-2.1094z"/>
  </symbol>
 </defs>
 <g>
  <path d="m578.14 33.457h-482.52v499.72h499.72v-499.72zm0 133.26h-114.99v116.6h114.99v116.6h-114.99v116.06h-117.14v-116.07l-116.06 0.003906v116.07h-117.14v-116.07h117.14v-114.99h-117.14v-117.14h117.14v117.14h116.06v114.99l117.14 0.003907v-116.6h-117.14v-116.61h-116.06v-116.06h116.06v116.06h117.14v-116.06h114.99z"/>
 </g>
</svg>
